<?xml version="1.0" encoding="utf-8"?>
<!-- Generator: Adobe Illustrator 26.3.1, SVG Export Plug-In . SVG Version: 6.00 Build 0)  -->
<svg version="1.1" id="Layer_1" xmlns="http://www.w3.org/2000/svg" xmlns:xlink="http://www.w3.org/1999/xlink" x="0px" y="0px"
	 viewBox="0 0 284.2 224.3" style="enable-background:new 0 0 284.2 224.3;" xml:space="preserve">
<style type="text/css">
	.st0{fill:#032B75;}
	.st1{fill:#F96700;}
</style>
<g>
	<polygon class="st0" points="162.2,1 121.3,13.7 83.5,81.6 117,81.6 	"/>
	<polygon class="st0" points="83.9,94.6 110,143.1 144,143.1 116.3,94.6 	"/>
	<path class="st1" d="M209.7,88.7l-20.7-38.5c-12.5,22-34.8,61.4-42.3,74.2l10.4,18.6h21.9L209.7,88.7z"/>
	<path class="st1" d="M140.4,113.4l42-75.2l-13.7-25.3c-10.8,19-32.9,58.2-42.7,75L140.4,113.4z"/>
</g>
<g>
	<path class="st0" d="M18.5,175.9v9.1h16v6.4h-16V204h-8.1v-34.6h26.1v6.4H18.5z"/>
	<path class="st0" d="M37.2,190.8c0-8,6.1-13.6,14.6-13.6s14.6,5.7,14.6,13.6c0,8-6.1,13.6-14.6,13.6S37.2,198.8,37.2,190.8z
		 M58.6,190.8c0-4.6-2.9-7.4-6.7-7.4s-6.8,2.8-6.8,7.4s3,7.4,6.8,7.4S58.6,195.4,58.6,190.8z"/>
	<path class="st0" d="M86.5,177.1v7.1c-0.7-0.1-1.2-0.1-1.7-0.1c-4.2,0-7.1,2.3-7.1,7.4v12.6H70v-26.6h7.4v3.5
		C79.2,178.5,82.3,177.1,86.5,177.1z"/>
	<path class="st0" d="M117.5,177.5v22.1c0,9.9-5.4,14.4-14.9,14.4c-5,0-9.9-1.2-13.1-3.6l3.1-5.6c2.7,2,6,3.1,9.4,3
		c5.5,0,7.8-2.5,7.8-7.3v-1.2c-2.2,2.2-5.3,3.5-8.4,3.3c-7.4,0-13.2-5.1-13.2-12.9c0-7.8,6-12.9,13.2-12.9c3.7,0,6.7,1.2,8.7,3.8
		v-3.5h7.3V177.5z M109.9,189.9c0-3.9-2.9-6.5-6.9-6.5s-7,2.6-7,6.5s3,6.5,7,6.5C106.9,196.4,109.9,193.8,109.9,189.9z"/>
	<path class="st0" d="M148.8,193h-20.1c0.8,3.3,3.6,5.4,7.6,5.4c2.5,0.1,4.9-0.9,6.6-2.6l4.1,4.4c-2.5,2.8-6.1,4.3-10.9,4.3
		c-9.2,0-15.2-5.8-15.2-13.6c0-8,6-13.6,14.2-13.6c7.8,0,13.8,5.3,13.8,13.8C148.9,191.4,148.8,192.3,148.8,193z M128.6,188.5h13.1
		c-0.6-3.6-4-6-7.7-5.5C131.2,183.5,129.1,185.7,128.6,188.5z"/>
	<path class="st0" d="M174.5,204.1l-6.6-9.6h-7.4v9.6h-8v-34.6h14.9c9.2,0,15,4.8,15,12.6c0.2,4.8-2.7,9.1-7.1,10.9l7.8,11.1
		L174.5,204.1L174.5,204.1z M167,176h-6.5v12.1h6.5c4.9,0,7.4-2.3,7.4-6C174.3,178.3,171.8,176,167,176L167,176z"/>
	<path class="st0" d="M184.8,190.8c0-8,6.1-13.6,14.6-13.6s14.6,5.7,14.6,13.6c0,8-6.1,13.6-14.6,13.6
		C190.9,204.5,184.8,198.8,184.8,190.8z M206.2,190.8c0-4.6-2.9-7.4-6.7-7.4c-3.8,0-6.8,2.8-6.8,7.4s3,7.4,6.8,7.4
		C203.3,198.2,206.2,195.4,206.2,190.8z"/>
	<path class="st0" d="M217.3,190.8c0-8,6.1-13.6,14.8-13.6c5.6,0,10,2.4,11.9,6.7l-6,3.2c-1.2-2.2-3.5-3.6-6-3.6
		c-3.9,0-6.9,2.7-6.9,7.4c0,4.7,3.1,7.4,6.9,7.4c2.5,0,4.9-1.3,6-3.6l6,3.3c-1.9,4.2-6.3,6.7-11.9,6.7
		C223.4,204.5,217.3,198.8,217.3,190.8z"/>
	<path class="st0" d="M259.2,193.7l-3.7,3.6v6.7h-7.7v-36.6h7.7v20.7l11.2-10.7h9.2l-11,11.2l12,15.3h-9.3L259.2,193.7z"/>
	<path class="st0" d="M282.8,180.7c0,1.6-1.2,3-2.9,3.1c-1.6,0.1-3-1.2-3.1-2.9c0-1.6,1.2-3,2.9-3.1h0.1
		C281.3,177.7,282.7,179,282.8,180.7C282.8,180.6,282.8,180.7,282.8,180.7z M277.5,180.7c0,1.2,1.1,2.2,2.3,2.1
		c1.2,0,2.2-1.1,2.1-2.3c0-1.2-1.1-2.1-2.2-2.1C278.5,178.4,277.5,179.3,277.5,180.7C277.5,180.6,277.5,180.6,277.5,180.7z
		 M279.3,182.2h-0.7v-2.9c0.4-0.1,0.8-0.1,1.2-0.1s0.7,0,1,0.2c0.2,0.2,0.3,0.4,0.3,0.7s-0.3,0.6-0.6,0.7l0,0
		c0.3,0.1,0.5,0.4,0.5,0.7c0,0.3,0.1,0.5,0.2,0.8h-0.8c-0.1-0.2-0.2-0.5-0.2-0.7c-0.1-0.3-0.2-0.5-0.6-0.5h-0.3V182.2L279.3,182.2z
		 M279.3,180.5h0.3c0.4,0,0.7-0.1,0.7-0.4c0-0.3-0.2-0.5-0.6-0.5c-0.1,0-0.3,0-0.4,0V180.5L279.3,180.5z"/>
</g>
</svg>
