<?xml version="1.0" encoding="UTF-8"?><svg id="Layer_1" xmlns="http://www.w3.org/2000/svg" viewBox="0 0 272.76 211"><defs><style>.cls-1{fill:#fff;}</style></defs><g><polygon class="cls-1" points="151.95 0 111 12.55 73.21 79.87 106.77 79.87 151.95 0"/><polygon class="cls-1" points="73.6 92.71 99.75 140.73 133.78 140.73 106 92.71 73.6 92.71"/><path class="cls-1" d="M199.55,86.91l-20.77-38.13c-12.5,21.78-34.9,60.86-42.4,73.5l10.38,18.45h21.92l30.86-53.82Z"/><path class="cls-1" d="M130.13,111.35l42.11-74.45-13.75-25.1c-10.77,18.83-32.98,57.62-42.78,74.26l14.42,25.29Z"/></g><g><path class="cls-1" d="M8.08,173.25v9.03H24.13v6.37H8.08v12.46H0v-34.23H26.15v6.37H8.08Z"/><path class="cls-1" d="M26.82,187.99c0-7.89,6.15-13.5,14.61-13.5s14.61,5.61,14.61,13.5-6.15,13.5-14.61,13.5-14.61-5.52-14.61-13.5Zm21.44,0c0-4.56-2.88-7.32-6.73-7.32s-6.83,2.76-6.83,7.32,2.98,7.32,6.83,7.32,6.73-2.76,6.73-7.32Z"/><path class="cls-1" d="M76.15,174.49v7.04c-.67-.1-1.15-.1-1.73-.1-4.23,0-7.11,2.28-7.11,7.32v12.46h-7.69v-26.34h7.4v3.42c1.83-2.47,5-3.8,9.13-3.8Z"/><path class="cls-1" d="M107.2,174.87v21.87c0,9.79-5.38,14.26-14.9,14.26-5,0-9.9-1.24-13.08-3.61l3.08-5.52c2.69,2,6.06,3.04,9.42,2.95,5.48,0,7.79-2.47,7.79-7.23v-1.14c-2.21,2.19-5.29,3.42-8.36,3.23-7.4,0-13.27-5.04-13.27-12.74s5.96-12.74,13.27-12.74c3.75,0,6.73,1.24,8.75,3.8v-3.42h7.31v.29Zm-7.6,12.27c0-3.9-2.88-6.47-6.92-6.47s-7.02,2.57-7.02,6.47,2.98,6.47,7.02,6.47,6.92-2.57,6.92-6.47Z"/><path class="cls-1" d="M138.54,190.18h-20.09c.77,3.23,3.56,5.32,7.6,5.32,2.5,.1,4.9-.86,6.63-2.57l4.13,4.37c-2.5,2.76-6.15,4.28-10.96,4.28-9.23,0-15.19-5.71-15.19-13.5s6.06-13.5,14.23-13.5,13.84,5.23,13.84,13.69c-.1,.38-.19,1.24-.19,1.9Zm-20.19-4.47h13.08c-.58-3.61-4.04-5.99-7.69-5.42-2.79,.48-4.9,2.66-5.38,5.42Z"/><path class="cls-1" d="M164.31,201.21l-6.63-9.51h-7.4v9.51h-7.98v-34.23h14.9c9.23,0,15,4.75,15,12.46,.19,4.75-2.69,9.03-7.11,10.84l7.79,11.03h-8.56v-.1Zm-7.5-27.86h-6.54v11.98h6.54c4.9,0,7.4-2.28,7.4-5.99-.1-3.71-2.6-5.99-7.4-5.99h0Z"/><path class="cls-1" d="M174.6,187.99c0-7.89,6.15-13.5,14.61-13.5s14.61,5.61,14.61,13.5-6.15,13.5-14.61,13.5c-8.46,.1-14.61-5.52-14.61-13.5Zm21.44,0c0-4.56-2.88-7.32-6.73-7.32s-6.83,2.76-6.83,7.32,2.98,7.32,6.83,7.32,6.73-2.76,6.73-7.32Z"/><path class="cls-1" d="M207.19,187.99c0-7.89,6.15-13.5,14.81-13.5,5.58,0,10,2.38,11.92,6.66l-5.96,3.14c-1.15-2.19-3.46-3.61-5.96-3.61-3.94,0-6.92,2.66-6.92,7.32s3.08,7.32,6.92,7.32c2.5,0,4.9-1.33,5.96-3.61l5.96,3.23c-1.92,4.18-6.35,6.66-11.92,6.66-8.65,0-14.81-5.61-14.81-13.6Z"/><path class="cls-1" d="M249.2,190.84l-3.75,3.61v6.66h-7.69v-36.23h7.69v20.54l11.25-10.55h9.23l-11.06,11.13,12.02,15.12h-9.33l-8.36-10.27Z"/><path class="cls-1" d="M272.76,178c0,1.62-1.25,2.95-2.88,3.04s-2.98-1.24-3.08-2.85c0-1.62,1.25-2.95,2.88-3.04h.1c1.54-.1,2.88,1.14,2.98,2.85,0-.1,0,0,0,0Zm-5.29,0c0,1.24,1.06,2.19,2.31,2.09,1.25,0,2.21-1.05,2.12-2.28,0-1.24-1.06-2.09-2.21-2.09s-2.21,.95-2.21,2.28q0-.1,0,0Zm1.83,1.52h-.67v-2.85c.38-.1,.77-.1,1.15-.1s.67,0,.96,.19c.19,.19,.29,.38,.29,.67s-.29,.57-.58,.67h0c.29,.1,.48,.38,.48,.67s.1,.48,.19,.76h-.77c-.1-.19-.19-.48-.19-.67-.1-.29-.19-.48-.58-.48h-.29v1.14h0Zm0-1.71h.29c.38,0,.67-.1,.67-.38s-.19-.48-.58-.48h-.38v.86h0Z"/></g></svg>